<?xml version="1.0" encoding="UTF-8" standalone="no"?>
<!-- Created with Inkscape (http://www.inkscape.org/) -->

<svg
   width="210mm"
   height="297mm"
   viewBox="0 0 210 297"
   version="1.1"
   id="svg1"
   xml:space="preserve"
   inkscape:version="1.3.2 (091e20e, 2023-11-25, custom)"
   sodipodi:docname="label.svg"
   xmlns:inkscape="http://www.inkscape.org/namespaces/inkscape"
   xmlns:sodipodi="http://sodipodi.sourceforge.net/DTD/sodipodi-0.dtd"
   xmlns="http://www.w3.org/2000/svg"
   xmlns:svg="http://www.w3.org/2000/svg"><sodipodi:namedview
     id="namedview1"
     pagecolor="#ffffff"
     bordercolor="#000000"
     borderopacity="0.25"
     inkscape:showpageshadow="2"
     inkscape:pageopacity="0.0"
     inkscape:pagecheckerboard="0"
     inkscape:deskcolor="#d1d1d1"
     inkscape:document-units="mm"
     inkscape:zoom="1.4878904"
     inkscape:cx="360.91369"
     inkscape:cy="307.81838"
     inkscape:window-width="1350"
     inkscape:window-height="1212"
     inkscape:window-x="1845"
     inkscape:window-y="87"
     inkscape:window-maximized="0"
     inkscape:current-layer="layer1" /><defs
     id="defs1" /><g
     inkscape:label="Layer 1"
     inkscape:groupmode="layer"
     id="layer1"><g
       id="g347"
       inkscape:export-filename=".\label.png"
       inkscape:export-xdpi="529.94769"
       inkscape:export-ydpi="529.94769"><rect
         style="fill:#ffffff;stroke-width:2.113;stroke-linecap:round;stroke-opacity:0.43414;paint-order:markers fill stroke"
         id="rect347"
         width="98.159119"
         height="92.824379"
         x="20.449816"
         y="10.491644" /><path
         d="m 68.309975,78.538307 c -7.0937,-0.43175 -13.480319,-3.94001 -17.700479,-9.723132 l -0.23619,-0.32366 2.06271,-1.54022 c 1.13449,-0.84712 2.06271,-1.54864 2.06271,-1.55893 0,-0.0103 -0.0357,0.004 -0.0794,0.0325 -0.50172,0.32361 -2.33113,1.40029 -2.3546,1.38579 -0.0463,-0.0286 -0.62587,-0.96311 -0.8971,-1.44651 -0.28817,-0.51358 -0.7663,-1.48261 -0.99217,-2.01083 -0.24606,-0.57544 -0.57969,-1.48029 -0.54979,-1.49111 0.0144,-0.005 0.66518,0.29964 1.44631,0.67741 0.78112,0.37777 1.44849,0.69582 1.48304,0.70679 0.053,0.0168 0.17544,-0.2142 0.78,-1.47116 0.39445,-0.8201 0.72759,-1.50343 0.74031,-1.51851 0.0127,-0.0151 0.1075,0.19923 0.21063,0.47625 0.54378,1.46067 1.338919,2.92231 2.249229,4.13458 0.92856,1.23659 2.1681,2.47058 3.37658,3.36147 0.19517,0.14387 0.39051,0.28838 0.4341,0.32113 l 0.0793,0.0595 -0.42517,0.56444 c -0.23385,0.31045 -0.43745,0.57681 -0.45244,0.59192 -0.0293,0.0295 -0.75862,-0.47193 -1.50338,-1.03363 -0.73361,-0.55328 -1.33488,-1.06681 -1.93829,-1.65544 l -0.56244,-0.54868 0.2783,0.33514 c 0.39009,0.46977 1.64621,1.71709 2.15187,2.13681 2.8397,2.35707 6.01535,3.71079 9.77195,4.1656 0.42648,0.0516 0.79614,0.0642 1.905001,0.0647 1.360608,5.7e-4 1.602078,-0.013 2.539998,-0.14307 4.28859,-0.59462 8.313478,-2.76518 11.14908,-6.01252 0.64184,-0.73504 0.67631,-0.8008 0.12217,-0.2331 -0.6245,0.63979 -1.069822,1.03893 -1.799172,1.61264 -0.7164,0.56352 -1.83528,1.35095 -1.86785,1.31455 -0.015,-0.0167 -0.21876,-0.28631 -0.45287,-0.59906 l -0.42564,-0.56864 0.26623,-0.18588 c 0.95262,-0.66513 2.23539,-1.8434 2.99558,-2.75158 1.298342,-1.55108 2.213172,-3.12479 2.910472,-5.00662 0.10122,-0.27318 0.18936,-0.49137 0.19586,-0.48487 0.007,0.007 0.34336,0.70045 0.74856,1.5421 0.4052,0.84166 0.75048,1.53447 0.76729,1.53958 0.0168,0.005 0.68144,-0.30534 1.47695,-0.68991 0.79552,-0.38456 1.45122,-0.69552 1.45711,-0.69101 0.0173,0.0132 -0.40996,1.12648 -0.60191,1.56839 -0.22686,0.52229 -0.71215,1.4928 -1.00547,2.01083 -0.26778,0.47291 -0.82893,1.37589 -0.85492,1.3757 -0.01,-8e-5 -0.48456,-0.26995 -1.05497,-0.59973 -0.5704,-0.32977 -1.04611,-0.59958 -1.05712,-0.59958 -0.011,0 0.84142,0.64329 1.8943,1.42953 l 1.91431,1.42953 -0.15163,0.21822 c -0.56527,0.81348 -1.4758,1.89413 -2.33842,2.7753 -2.34904,2.399582 -5.033162,4.192142 -8.149612,5.442612 -2.056608,0.82521 -4.291778,1.35366 -6.614578,1.56385 -0.73983,0.0669 -2.665239,0.0955 -3.404309,0.0506 z m 2.178409,-0.79714 0.34395,-0.0223 v -0.14853 c 0,-0.0817 -0.0102,-0.24611 -0.0227,-0.36538 l -0.0227,-0.21684 h -0.13099 -0.13098 l -0.0225,-0.23812 c -0.0422,-0.44683 -0.0472,-0.43216 0.14725,-0.43216 0.13479,0 0.18705,0.0179 0.25099,0.086 0.0745,0.0793 0.0834,0.13326 0.1143,0.69611 0.0184,0.33558 0.0365,0.61169 0.04,0.61356 0.01,0.005 1.38144,-0.0617 1.38831,-0.0677 0.003,-0.003 -0.003,-0.16787 -0.0139,-0.3667 l -0.0199,-0.3615 h -0.0956 c -0.0929,0 -0.0963,-0.007 -0.11914,-0.2529 -0.0327,-0.35134 -0.17879,-0.55849 -0.39399,-0.55849 -0.0821,0 -0.0595,-0.0505 0.0523,-0.11652 0.0609,-0.036 0.14292,-0.14163 0.19922,-0.25669 0.1807,-0.36935 0.10514,-0.91222 -0.16452,-1.18187 -0.25763,-0.25763 -0.5557,-0.2893 -1.972698,-0.2096 -0.33955,0.0191 -0.708641,0.035 -0.820211,0.0354 l -0.20284,6.8e-4 v 0.31461 c 0,0.39286 0.0124,0.42622 0.15797,0.42622 h 0.11514 l 0.0211,0.2734 c 0.0116,0.15037 0.03,0.50359 0.0409,0.78493 0.0108,0.28134 0.0283,0.59487 0.0389,0.69674 0.019,0.1841 0.0186,0.18521 -0.0804,0.18575 -0.16694,9e-4 -0.17685,0.0258 -0.15962,0.40147 l 0.016,0.34909 0.551191,-0.0232 c 0.30316,-0.0127 0.70598,-0.0332 0.895158,-0.0455 z m -0.0445,-2.20823 c -2.1e-4,-0.12126 -0.0102,-0.28001 -0.0222,-0.35277 l -0.0219,-0.1323 h 0.196642 c 0.25284,0 0.30648,0.0658 0.30648,0.37627 0,0.26048 -0.0643,0.32929 -0.30771,0.32929 h -0.150902 z m -3.218221,2.00466 c 0.38836,-0.10338 0.67126,-0.34851 0.85802,-0.74348 0.15615,-0.33022 0.21528,-0.59928 0.23461,-1.06761 0.0156,-0.37857 0.008,-0.46232 -0.0588,-0.67028 -0.17778,-0.55102 -0.54467,-0.83315 -1.27621,-0.98138 -0.8221,-0.16658 -1.47445,0.10507 -1.77482,0.73905 -0.18759,0.39594 -0.24668,0.68066 -0.24625,1.18647 3.2e-4,0.37237 0.0126,0.47202 0.079,0.64048 0.18663,0.47335 0.56371,0.75753 1.18734,0.89482 0.28213,0.0621 0.76751,0.063 0.99709,0.002 z m -0.8865,-0.83423 c -0.11748,-0.0924 -0.11736,-0.0971 0.0254,-0.99945 0.10251,-0.64805 0.1264,-0.74532 0.1971,-0.80257 0.0917,-0.0743 0.21838,-0.0837 0.33071,-0.0246 0.10825,0.057 0.12886,0.0984 0.12913,0.2593 3.2e-4,0.18758 -0.20214,1.45244 -0.24543,1.53332 -0.0686,0.12813 -0.29483,0.14572 -0.43688,0.034 z m 7.849113,0.59498 c 0.38555,-0.10104 0.70068,-0.20025 0.7003,-0.22049 -3.8e-4,-0.0202 -0.0636,-0.27445 -0.14057,-0.56492 l -0.13987,-0.52814 0.46736,0.4664 c 0.25705,0.25652 0.49096,0.46617 0.51981,0.46589 0.07,-6.8e-4 1.19463,-0.30089 1.21918,-0.32545 0.0106,-0.0106 -0.005,-0.10429 -0.0339,-0.20824 -0.0292,-0.10395 -0.0703,-0.25597 -0.0913,-0.33783 -0.035,-0.13617 -0.0464,-0.14737 -0.1342,-0.13161 -0.0822,0.0148 -0.16433,-0.0418 -0.5722,-0.39365 -0.26194,-0.22598 -0.48035,-0.42116 -0.48537,-0.43373 -0.005,-0.0126 0.0847,-0.2447 0.19938,-0.51585 0.17225,-0.40731 0.22445,-0.49879 0.30035,-0.52633 0.0587,-0.0213 0.0862,-0.0531 0.0761,-0.0882 -0.009,-0.0302 -0.0509,-0.18582 -0.0939,-0.345902 -0.043,-0.16007 -0.0876,-0.29098 -0.0991,-0.29091 -0.0358,2.3e-4 -1.0667,0.27539 -1.07866,0.2879 -0.006,0.007 -0.11401,0.304642 -0.23952,0.662522 -0.15257,0.43502 -0.23522,0.62795 -0.24936,0.58208 -0.0116,-0.0377 -0.0777,-0.28213 -0.14686,-0.54311 -0.0691,-0.26098 -0.13144,-0.48022 -0.13842,-0.4872 -0.007,-0.007 -0.33188,0.0701 -0.722,0.17135 -0.55492,0.14398 -0.70867,0.19627 -0.7064,0.24025 0.002,0.0309 0.0373,0.18322 0.0794,0.33844 l 0.0765,0.28223 h 0.13706 0.13707 l 0.24161,0.91722 c 0.13289,0.50447 0.24184,0.92736 0.24212,0.93975 2.7e-4,0.0124 -0.0559,0.0331 -0.12474,0.046 -0.0955,0.0179 -0.12118,0.0377 -0.10813,0.0833 0.009,0.0329 0.0516,0.19078 0.0938,0.35085 0.0422,0.16007 0.085,0.29104 0.095,0.29104 0.0101,0 0.33379,-0.0827 0.71933,-0.18369 z m -10.380173,-1.63552 c 0.60755,-0.85589 0.80293,-1.10754 0.84667,-1.0905 0.0313,0.0122 0.0688,0.0249 0.0834,0.0284 0.0396,0.009 0.31284,-0.62113 0.28207,-0.65082 -0.045,-0.0435 -1.32651,-0.597072 -1.35787,-0.586622 -0.0224,0.007 -0.30898,0.608702 -0.30898,0.648292 0,0.004 0.0556,0.0261 0.12347,0.0486 0.0679,0.0224 0.12347,0.0506 0.12347,0.0627 0,0.0465 -0.82733,1.38875 -0.8374,1.35855 -0.006,-0.0176 0.10118,-0.54523 0.23784,-1.17261 0.13667,-0.627372 0.24413,-1.144532 0.23882,-1.149242 -0.008,-0.007 -0.32772,-0.14789 -1.00567,-0.44261 l -0.14933,-0.0649 -0.69563,0.96863 c -0.38259,0.532742 -0.70586,0.968622 -0.71837,0.968622 -0.0214,0 0.40877,-1.512462 0.4387,-1.542382 0.008,-0.008 0.0693,0.009 0.13689,0.0374 l 0.12292,0.0513 0.14233,-0.33137 c 0.0783,-0.18225 0.13058,-0.33864 0.1162,-0.34753 -0.0628,-0.0388 -1.56722,-0.68928 -1.57528,-0.68111 -0.005,0.005 -0.072,0.15194 -0.14902,0.32657 l -0.14005,0.3175 0.0809,0.0436 c 0.0506,0.0273 0.0752,0.0669 0.0657,0.10583 -0.045,0.18427 -0.50557,2.633722 -0.49683,2.642462 0.037,0.037 1.38103,0.60672 1.4015,0.59407 0.014,-0.009 0.26942,-0.34172 0.56757,-0.74013 0.29815,-0.39841 0.54596,-0.7122 0.55069,-0.69732 0.005,0.0149 -0.0693,0.42395 -0.16444,0.90901 -0.0952,0.48507 -0.16808,0.88689 -0.16203,0.89294 0.0226,0.0226 1.34278,0.60106 1.37661,0.60317 0.0194,0.001 0.39069,-0.49849 0.82508,-1.11045 z m 14.467829,0.28045 c 0.18868,-0.0482 0.50825,-0.17018 0.73126,-0.27902 0.80427,-0.39252 1.09594,-0.87119 0.8947,-1.46828 -0.10333,-0.30656 -0.26807,-0.519442 -0.49987,-0.645922 -0.16277,-0.0888 -0.23903,-0.10646 -0.51248,-0.11864 -0.17669,-0.008 -0.45988,0.004 -0.6293,0.0267 -0.329156,0.0438 -0.407636,0.0235 -0.407636,-0.10534 0,-0.15811 0.376636,-0.28708 0.450886,-0.1544 0.0267,0.0477 0.0887,0.0283 0.44273,-0.13866 0.22641,-0.1068 0.41166,-0.20209 0.41166,-0.21177 0,-0.0657 -0.32407,-0.69759 -0.36601,-0.71368 -0.0287,-0.011 -0.17319,-0.002 -0.32103,0.0207 -0.771846,0.117 -1.619916,0.59741 -1.836666,1.04043 -0.0839,0.17147 -0.094,0.22683 -0.0791,0.43362 0.0296,0.410632 0.26751,0.778822 0.60053,0.929342 0.17701,0.08 0.21558,0.0834 0.84609,0.0744 l 0.660636,-0.009 0.0224,0.0893 c 0.0272,0.10827 -0.0316,0.18752 -0.18719,0.25257 -0.1534,0.0641 -0.17508,0.0609 -0.26146,-0.0384 l -0.0746,-0.0859 -0.433226,0.2158 -0.43323,0.21579 0.1971,0.39596 0.1971,0.39596 0.12581,-0.0177 c 0.0692,-0.01 0.276616,-0.0563 0.460936,-0.10341 z M 64.242087,71.166405 c -0.25046,-0.1527 -0.2805,-0.49348 -0.0614,-0.69583 l 0.12418,-0.11465 h 5.366121 c 4.994598,0 5.373168,0.004 5.467998,0.0602 0.27615,0.16312 0.26875,0.58063 -0.0133,0.75263 -0.1107,0.0675 -0.21866,0.0689 -5.439878,0.0689 -5.280831,0 -5.327961,-6.2e-4 -5.443721,-0.0712 z m 6.964209,-0.23776 c 0.12775,-0.0853 0.1183,-0.28641 -0.0169,-0.35875 -0.0482,-0.0258 -1.090318,-0.0376 -3.327889,-0.0376 -2.89135,0 -3.26648,0.006 -3.33607,0.0549 -0.0937,0.0656 -0.10335,0.21182 -0.02,0.3039 0.0558,0.0616 0.20587,0.0645 3.36021,0.064 1.816001,-3e-4 3.319289,-0.0122 3.340639,-0.0265 z m -6.582639,-1.58696 c 3.5e-4,-1.0027 0.13162,-1.61738 0.51163,-2.39584 0.56433,-1.15606 1.54958,-2.06111 2.72571,-2.50384 0.22058,-0.083 0.22637,-0.0833 1.807741,-0.0833 h 1.586448 l 0.31544,0.12625 c 1.3374,0.53528 2.41429,1.68261 2.87917,3.06747 0.17,0.50641 0.2292,0.89775 0.252,1.66579 l 0.0212,0.71438 h -5.049768 -5.049781 z m 2.48006,-1.61366 c 0.70463,-0.18353 1.19656,-0.77524 0.79082,-0.95123 -0.0625,-0.0271 -0.14547,-0.0597 -0.18428,-0.0725 -0.0579,-0.019 -0.0413,-0.0343 0.0927,-0.0858 0.55398,-0.21242 0.98322,-0.6198 0.98322,-0.93314 0,-0.22179 -0.33114,-0.40982 -0.72078,-0.40928 -0.26881,3.7e-4 -0.74277,0.12642 -1.06982,0.28453 -0.36188,0.17494 -0.68516,0.47469 -0.75179,0.69707 -0.0919,0.30691 0.12132,0.50091 0.58145,0.52888 l 0.24391,0.0148 -0.18793,0.0893 c -0.10337,0.0491 -0.26349,0.16228 -0.35584,0.25146 -0.4518,0.43627 -0.1237,0.7686 0.57829,0.58576 z m -7.52878,-2.11182 c -0.23446,-0.0965 -0.35729,-0.18096 -0.52872,-0.36378 -0.43403,-0.46291 -0.50974,-1.17377 -0.18427,-1.73022 0.0493,-0.0843 1.75386,-1.7929 3.93844,-3.94781 2.11834,-2.08958 4.06551,-4.01079 4.32702,-4.26936 l 0.47549,-0.47012 -1.86896,-1.84237 c -1.02793,-1.0133 -2.07645,-2.04583 -2.33005,-2.29452 l -0.46109,-0.45216 -0.20231,0.0895 c -1.30572,0.57744 -2.91281,0.26507 -3.92901,-0.76371 -0.33633,-0.34049 -0.47623,-0.53855 -0.68129,-0.96445 -0.19136,-0.39744 -0.30144,-0.77854 -0.33644,-1.1648 l -0.0238,-0.26208 1.29849,0.70629 c 0.79505,0.43246 1.36379,0.7203 1.46693,0.74242 0.13152,0.0282 0.21718,0.0238 0.39081,-0.02 0.42495,-0.10725 0.79849,-0.45422 1.08156,-1.00461 0.4332,-0.84232 0.46557,-1.58926 0.0846,-1.95125 -0.0534,-0.0507 -0.68448,-0.41106 -1.40238,-0.80072 -0.71791,-0.38965 -1.30528,-0.72751 -1.30528,-0.75081 0,-0.0652 0.63254,-0.36952 0.98778,-0.47521 0.29257,-0.0871 0.36734,-0.0945 0.9525,-0.095 0.54568,-4.6e-4 0.67397,0.0103 0.91207,0.0765 0.35138,0.0977 0.88365,0.34899 1.16408,0.54963 0.49614,0.355 0.97157,0.94593 1.20294,1.49519 0.28954,0.68732 0.35331,1.35477 0.21003,2.19821 l -0.0214,0.1257 1.78507,1.76384 1.78508,1.76382 -7.9e-4,3.33159 -7.9e-4,3.33157 -3.66427,3.61082 c -2.01535,1.98596 -3.73346,3.65705 -3.81803,3.71354 -0.21964,0.14672 -0.45641,0.20757 -0.80398,0.20661 -0.23361,-6.5e-4 -0.34723,-0.0193 -0.5001,-0.0822 z m 0.90578,-0.78292 c 0.21193,-0.12106 0.6034,-0.55071 0.64795,-0.71116 0.10065,-0.36243 -0.0353,-0.67569 -0.36423,-0.83963 -0.33404,-0.16646 -0.56114,-0.10782 -0.92648,0.23922 -0.31473,0.29896 -0.41299,0.46852 -0.41442,0.71516 -0.002,0.40964 0.38885,0.75438 0.79019,0.69627 0.0679,-0.01 0.18805,-0.0548 0.26699,-0.0999 z m 18.271475,0.80374 c -0.097,-0.0347 -0.23868,-0.10568 -0.31482,-0.15777 -0.0761,-0.0521 -1.786316,-1.71856 -3.800386,-3.70326 l -3.66195,-3.60854 -7.9e-4,-3.33157 -7.9e-4,-3.33159 1.78507,-1.76382 1.78507,-1.76384 -0.0213,-0.1257 c -0.14328,-0.84344 -0.0795,-1.51089 0.21003,-2.19821 0.23137,-0.54926 0.7068,-1.14019 1.20294,-1.49519 0.28043,-0.20064 0.8127,-0.45197 1.16407,-0.54963 0.23811,-0.0662 0.3664,-0.0769 0.91208,-0.0765 0.585156,4.8e-4 0.659916,0.008 0.952496,0.095 0.35524,0.10569 0.98778,0.41 0.98778,0.47521 0,0.0233 -0.58738,0.36116 -1.30528,0.75081 -0.717896,0.38966 -1.348966,0.74998 -1.402376,0.80072 -0.381,0.36199 -0.34863,1.10893 0.0846,1.95125 0.28307,0.55039 0.65661,0.89736 1.081556,1.00461 0.17363,0.0438 0.25929,0.0482 0.39081,0.02 0.10314,-0.0221 0.67188,-0.30996 1.46693,-0.74242 l 1.29849,-0.70629 -0.0238,0.26208 c -0.035,0.38626 -0.14508,0.76736 -0.33643,1.1648 -0.20506,0.4259 -0.34497,0.62396 -0.68129,0.96445 -1.01621,1.02878 -2.623286,1.34115 -3.929006,0.76371 l -0.20231,-0.0895 -0.4611,0.45216 c -0.2536,0.24869 -1.30212,1.28122 -2.33005,2.29452 l -1.86895,1.84237 0.47548,0.47012 c 0.26152,0.25857 2.20868,2.17978 4.32702,4.26936 2.184576,2.15491 3.889146,3.86354 3.938446,3.94781 0.26287,0.44943 0.26343,1.04621 0.001,1.49421 -0.12174,0.20814 -0.40469,0.46041 -0.63994,0.57056 -0.26536,0.12424 -0.80621,0.14922 -1.08367,0.0501 z m 0.81928,-0.80695 c 0.31072,-0.17767 0.43215,-0.59437 0.26627,-0.91378 -0.0407,-0.0784 -0.19343,-0.25597 -0.33935,-0.39458 -0.36535,-0.34704 -0.59245,-0.40568 -0.92649,-0.23922 -0.18972,0.0945 -0.29467,0.21171 -0.36043,0.40237 -0.0993,0.28796 -0.029,0.50498 0.26433,0.81593 0.43453,0.46063 0.71731,0.54561 1.09567,0.32928 z M 68.645115,51.082245 v -12.53561 l 0.10788,-0.21589 c 0.11446,-0.22904 0.23421,-0.35023 0.4701,-0.47574 0.2101,-0.11178 0.681901,-0.11077 0.893931,0.002 0.20078,0.10671 0.370288,0.2824 0.472188,0.48941 l 0.0844,0.17139 0.009,12.55006 0.009,12.55007 h -1.023248 -1.023251 z m 0.908001,11.88195 c 0.0424,-0.0297 0.0934,-0.11302 0.11349,-0.18521 0.0247,-0.0891 0.0365,-3.9837 0.0366,-12.13566 2.1e-4,-13.17061 0.0171,-12.18377 -0.21085,-12.30167 -0.0908,-0.047 -0.132721,-0.05 -0.232701,-0.017 -0.24703,0.0815 -0.22653,-1.03667 -0.22653,12.35948 v 12.11697 l 0.0913,0.10854 c 0.0716,0.0851 0.11946,0.10854 0.22145,0.10854 0.0716,0 0.164791,-0.0243 0.207161,-0.054 z m -25.17911,-7.91883 v -3.21028 h 7.02924 7.029239 l 1.60485,1.60514 1.60485,1.60514 -1.60485,1.60514 -1.60485,1.60514 h -7.029239 -7.02924 z m 9.08291,1.30267 c 0.47806,-0.17886 0.72647,-0.73676 0.56909,-1.27811 -0.14704,-0.50579 -0.60379,-0.70525 -1.22943,-0.5369 -0.0955,0.0257 -0.097,0.0236 -0.097,-0.13564 v -0.16174 l 0.60854,-0.01 0.60854,-0.01 0.01,-0.3616 0.0101,-0.36161 h -0.98901 -0.98901 l -0.002,0.097 c -10e-4,0.0534 -0.0298,0.38768 -0.0633,0.74294 l -0.0609,0.64592 0.0829,0.13901 0.0829,0.13901 h 0.34304 0.34305 l 0.04,-0.10583 c 0.032,-0.0848 0.0607,-0.10584 0.14452,-0.10584 0.0575,0 0.12238,0.0215 0.14413,0.0477 0.0559,0.0674 0.0836,0.33831 0.0474,0.46387 -0.0272,0.0945 -0.0454,0.10584 -0.16907,0.10584 -0.1259,0 -0.14166,-0.0105 -0.17233,-0.11466 l -0.0337,-0.11465 h -0.41604 -0.41604 v 0.38396 0.38396 l 0.18521,0.0735 c 0.48336,0.19175 1.02702,0.21981 1.41881,0.0732 z m -2.87633,0.0358 c 0.61459,-0.0997 0.93951,-0.44278 1.06722,-1.12681 0.0592,-0.31686 0.0196,-0.93719 -0.0733,-1.15001 -0.0979,-0.22436 -0.3201,-0.44534 -0.55067,-0.54774 -0.24021,-0.10667 -0.83549,-0.13532 -1.11621,-0.0537 -0.4386,0.1275 -0.63184,0.38044 -0.65824,0.86155 -0.0184,0.33547 0.0393,0.53751 0.1964,0.68801 0.24133,0.23116 0.72517,0.2954 1.1107,0.14746 0.0521,-0.02 0.0616,-0.003 0.0615,0.1124 -1.9e-4,0.19641 -0.10791,0.35263 -0.27835,0.4037 -0.1347,0.0404 -0.36599,0.0235 -0.84309,-0.0614 l -0.11614,-0.0207 0.0103,0.29526 0.0103,0.29527 0.19295,0.064 c 0.35442,0.1175 0.65789,0.14602 0.98654,0.0927 z m -0.35047,-1.76181 c -0.0474,-0.0474 -0.0705,-0.11759 -0.0705,-0.21398 0,-0.22096 0.0471,-0.27991 0.22349,-0.27991 0.0828,0 0.1695,0.019 0.19279,0.0423 0.0665,0.0665 0.0555,0.47423 -0.0135,0.50069 -0.1108,0.0425 -0.26313,0.02 -0.33226,-0.0491 z m -1.05833,1.42875 v -0.29986 h -0.15875 -0.15875 v -1.12889 -1.1289 l -0.3616,9.8e-4 c -0.26958,7.3e-4 -0.46484,0.0256 -0.76729,0.0978 l -0.4057,0.0968 v 0.21088 0.21088 l 0.22049,0.0105 0.22049,0.0105 v 0.8097 0.80971 h -0.17639 -0.17639 v 0.29986 0.29986 h 0.88194 0.88195 z m 7.373049,-0.0353 v -0.33514 h -0.10583 c -0.0894,0 -0.10583,-0.0137 -0.10583,-0.0882 0,-0.0794 0.0141,-0.0882 0.14111,-0.0882 h 0.14111 v -0.28223 -0.28222 h -0.14111 -0.14111 v -0.24694 -0.24695 h -0.49389 -0.49389 v 0.24695 0.24694 h -0.14111 c -0.0776,0 -0.141109,-0.0108 -0.141109,-0.0241 0,-0.0132 0.0952,-0.32913 0.211659,-0.70196 0.11642,-0.37284 0.21167,-0.68746 0.21167,-0.69913 0,-0.0117 -0.19523,-0.0212 -0.433829,-0.0212 h -0.43384 l -0.2188,0.68519 c -0.20184,0.63203 -0.21881,0.71002 -0.21881,1.00542 v 0.32024 h 0.58209 0.582079 v 0.0865 c 0,0.0815 -0.0128,0.0871 -0.220489,0.097 l -0.22048,0.0105 -0.0101,0.32632 -0.0101,0.32632 h 0.830349 0.83035 z m 22.754167,0.635 -1.604848,-1.60514 1.604848,-1.60514 1.60485,-1.60514 h 7.029242 7.02924 v 3.21028 3.21028 h -7.02924 -7.029242 z m 7.820502,-0.31925 c 0.50806,-0.14384 0.78792,-0.63839 0.78676,-1.39031 -10e-4,-0.73503 -0.21588,-1.16748 -0.6874,-1.38433 -0.15293,-0.0703 -0.23268,-0.0811 -0.59972,-0.0811 -0.36719,0 -0.44673,0.0108 -0.59972,0.0812 -0.46399,0.21356 -0.68688,0.65655 -0.68688,1.36521 0,0.86663 0.32395,1.34432 0.991,1.4613 0.22698,0.0398 0.54525,0.019 0.79596,-0.0519 z m -0.65126,-0.63525 c -0.0765,-0.0536 -0.0784,-0.0719 -0.0784,-0.74315 0,-0.40695 0.0149,-0.71612 0.0365,-0.75647 0.0273,-0.0511 0.0743,-0.0682 0.18697,-0.0682 0.0827,0 0.16951,0.019 0.19279,0.0423 0.0301,0.0301 0.0423,0.24806 0.0423,0.75647 0,0.69798 -0.002,0.71538 -0.0784,0.76905 -0.0431,0.0302 -0.11103,0.0549 -0.1509,0.0549 -0.0399,0 -0.10778,-0.0247 -0.1509,-0.0549 z m 5.3291,0.63084 c 0.2318,-0.0688 0.49331,-0.31731 0.55026,-0.523 0.0566,-0.20466 0.0487,-0.59744 -0.0151,-0.75031 -0.10532,-0.25204 -0.27404,-0.37459 -0.59828,-0.43453 -0.17772,-0.0328 -0.50389,-0.003 -0.67224,0.0617 -0.0384,0.0147 -0.0507,-0.0119 -0.0507,-0.10953 0,-0.15321 0.0752,-0.3117 0.18404,-0.38794 0.0999,-0.07 0.52845,-0.0731 0.81387,-0.006 l 0.20416,0.048 -0.0101,-0.30334 -0.0101,-0.30336 -0.17639,-0.0673 c -0.25852,-0.0986 -0.83733,-0.12082 -1.12422,-0.0432 -0.40954,0.11086 -0.7166,0.43359 -0.85568,0.89933 -0.0323,0.10828 -0.0664,0.3661 -0.0757,0.57293 -0.0223,0.4959 0.0583,0.7856 0.29048,1.04384 0.32174,0.35787 0.94682,0.4802 1.54584,0.30255 z m -0.70771,-0.63084 c -0.066,-0.0462 -0.0784,-0.088 -0.0784,-0.26298 v -0.20807 l 0.13025,-0.0244 c 0.0876,-0.0164 0.15978,-0.008 0.22049,0.026 0.0757,0.0423 0.0919,0.0797 0.10079,0.23129 0.009,0.15468 -0.001,0.18896 -0.0696,0.23697 -0.10131,0.071 -0.20337,0.0714 -0.30353,10e-4 z m -5.79341,0.24895 v -0.4057 h -0.37041 -0.37042 v 0.10584 c 0,0.10526 -0.001,0.10583 -0.20188,0.10583 h -0.20188 l 0.36704,-0.34396 c 0.20187,-0.18918 0.42675,-0.4363 0.49973,-0.54916 0.36203,-0.55988 0.19844,-1.17876 -0.35503,-1.34312 -0.35984,-0.10686 -0.94133,-0.0707 -1.43972,0.0897 l -0.22048,0.0709 v 0.43811 0.4381 h 0.36562 0.36562 l 0.0225,-0.16401 c 0.0291,-0.21213 0.072,-0.25933 0.23585,-0.25933 0.29058,0 0.32918,0.23165 0.0919,0.55175 -0.15196,0.20501 -0.55903,0.61053 -0.94921,0.94558 l -0.20285,0.17418 v 0.2755 0.27549 h 1.18181 1.1818 z m 4.55084,0.10583 v -0.29986 h -0.15875 -0.15875 v -1.12889 -1.1289 l -0.34396,-1e-4 c -0.24732,-7e-5 -0.46042,0.0266 -0.75847,0.0948 l -0.41452,0.0948 v 0.22276 0.22274 h 0.22931 0.2293 v 0.81139 0.81139 h -0.17639 -0.17639 v 0.29986 0.29986 h 0.86431 0.86431 z m -4.67152,-6.35882 c -0.21006,-0.67628 -0.77838,-1.93737 -1.23608,-2.74285 -1.12447,-1.97887 -2.768412,-3.82256 -4.577272,-5.13343 -0.22718,-0.16464 -0.41371,-0.31066 -0.41451,-0.32449 -8e-4,-0.0138 0.19175,-0.28678 0.4279,-0.60656 0.36095,-0.48878 0.4391,-0.5762 0.49051,-0.54868 0.0336,0.018 0.34814,0.23788 0.69889,0.48863 1.24275,0.88843 2.136342,1.63816 2.931992,2.45998 0.48081,0.49663 0.42407,0.40275 -0.16255,-0.26892 -0.41492,-0.47508 -1.481112,-1.52172 -1.936392,-1.9009 -3.02872,-2.52244 -6.607758,-3.96594 -10.512778,-4.24002 -0.839768,-0.0589 -2.429919,-0.0243 -3.227559,0.0704 -3.65688,0.43398 -6.90719,1.83047 -9.70335,4.16905 -0.7587,0.63454 -1.69693,1.58368 -2.36713,2.39464 -0.10531,0.12743 0.0765,-0.037 0.41082,-0.37156 0.63466,-0.6351 1.3495,-1.25061 2.1343,-1.8377 0.40631,-0.30395 1.23411,-0.89609 1.36299,-0.97497 0.0247,-0.0151 0.17917,0.16129 0.40289,0.46014 0.19955,0.26657 0.40004,0.53411 0.44554,0.59454 l 0.0827,0.10986 -0.45033,0.33272 c -1.68866,1.24766 -3.1142,2.78384 -4.22685,4.55494 -0.54916,0.87414 -1.360159,2.57674 -1.570709,3.29754 -0.0241,0.0825 -0.0547,0.14993 -0.0681,0.14993 -0.0133,0 -0.34818,-0.67609 -0.74407,-1.50242 -0.39589,-0.82632 -0.73795,-1.50999 -0.76012,-1.51926 -0.0222,-0.009 -0.69686,0.29917 -1.49931,0.68541 -0.80244,0.38625 -1.46361,0.69093 -1.46926,0.67706 -0.0155,-0.038 0.44817,-1.22373 0.68242,-1.7451 0.41624,-0.92641 0.98613,-1.97789 1.50539,-2.77752 0.20123,-0.3099 0.25645,-0.37296 0.30417,-0.34737 0.0321,0.0172 0.55439,0.32539 1.16072,0.68486 0.60634,0.35948 1.10243,0.6481 1.10243,0.64138 0,-0.007 -0.89694,-0.68276 -1.99319,-1.50231 -1.09626,-0.81956 -1.9932,-1.50543 -1.9932,-1.52416 0,-0.0465 0.47201,-0.69109 0.89035,-1.21588 2.24251,-2.81308 5.193249,-5.13781 8.448059,-6.65576 4.18654,-1.95249 8.78722,-2.61812 13.415759,-1.94098 5.788028,0.84677 11.14311,3.93107 14.84885,8.55233 0.4413,0.55031 0.97236,1.2669 0.95104,1.28327 -0.007,0.006 -0.89415,0.66621 -1.971,1.4682 -1.82628,1.3601 -2.20959,1.65337 -1.97556,1.51146 0.0485,-0.0294 0.54063,-0.32069 1.09361,-0.64728 0.55298,-0.32659 1.04067,-0.61643 1.08375,-0.64407 0.0759,-0.0487 0.0865,-0.0378 0.33913,0.34997 0.54873,0.84209 1.18728,2.04388 1.61851,3.04608 0.24751,0.57523 0.57256,1.42558 0.55207,1.44426 -0.007,0.006 -0.45726,-0.20207 -1.00054,-0.46326 -0.54328,-0.26119 -1.1963,-0.57484 -1.45116,-0.697 l -0.46338,-0.22211 -0.75228,1.56538 c -0.41375,0.86095 -0.76192,1.56537 -0.77372,1.56537 -0.0118,0 -0.0498,-0.0913 -0.0845,-0.20284 z m -28.177319,-9.03766 0.67101,-0.57985 -0.10164,-0.12571 c -0.0559,-0.0691 -0.16302,-0.19583 -0.23806,-0.28154 l -0.13643,-0.15584 -0.15246,0.13774 -0.15246,0.13774 -0.20495,-0.22843 -0.20495,-0.22843 0.31602,-0.29489 c 0.4787,-0.44669 0.60318,-0.71455 0.50579,-1.08845 -0.13474,-0.51728 -0.68313,-0.94731 -1.11915,-0.87759 -0.25877,0.0414 -0.52889,0.22516 -1.278119,0.86957 -0.40658,0.3497 -0.77767,0.67377 -0.82465,0.72016 l -0.0854,0.0843 0.20658,0.2401 c 0.11363,0.13205 0.21932,0.25497 0.23488,0.27314 0.0167,0.0195 0.0619,10e-4 0.11041,-0.0441 0.0452,-0.0424 0.097,-0.076 0.11512,-0.0746 0.0181,0.001 0.31393,0.33078 0.657289,0.73202 l 0.62427,0.72952 -0.10353,0.0816 -0.10354,0.0816 0.23773,0.27739 c 0.20323,0.23712 0.24626,0.27136 0.29649,0.23587 0.0323,-0.0228 0.36071,-0.30244 0.72976,-0.62136 z m -1.18552,-2.09974 -0.22061,-0.26113 0.10258,-0.0731 c 0.16279,-0.11592 0.26036,-0.095 0.42383,0.0907 0.0793,0.09 0.14411,0.19902 0.14411,0.24218 0,0.0892 -0.12519,0.26486 -0.18777,0.26342 -0.0229,-5.3e-4 -0.14081,-0.11847 -0.26214,-0.2621 z m 27.512989,2.10876 c 0.14276,-0.16842 0.27063,-0.32279 0.28416,-0.34303 0.0155,-0.0232 0.0554,-0.008 0.10781,0.0414 l 0.0832,0.0782 0.20359,-0.2444 c 0.11197,-0.13442 0.2036,-0.25483 0.20362,-0.26757 5e-5,-0.0279 -1.17051,-1.01706 -1.18243,-0.99923 -0.005,0.007 -0.10238,0.12145 -0.21732,0.25467 l -0.20899,0.24221 0.0969,0.0772 0.0969,0.0772 -0.0824,0.0774 c -0.11992,0.11265 -0.287762,0.10228 -0.415732,-0.0257 -0.18118,-0.18118 -0.15356,-0.25619 0.289392,-0.78579 0.5714,-0.68319 0.65969,-0.76915 0.78994,-0.76915 0.13369,0 0.33449,0.1809 0.33449,0.30134 0,0.0447 -0.0549,0.15322 -0.12197,0.2411 l -0.12197,0.15979 0.21899,0.1888 c 0.42498,0.36641 0.6265,0.52997 0.63612,0.51628 0.005,-0.008 0.13624,-0.16465 0.29086,-0.34898 0.15462,-0.18432 0.30161,-0.36171 0.32664,-0.39418 0.038,-0.0493 0.0329,-0.0842 -0.0309,-0.21167 -0.13318,-0.26613 -0.46488,-0.66902 -0.75675,-0.91917 -0.87609,-0.75087 -1.637462,-0.72858 -2.384312,0.0698 -0.91686,0.98013 -0.87204,1.85894 0.13568,2.65973 0.36211,0.28776 0.63721,0.43672 1.159962,0.6281 0.003,0.001 0.12183,-0.13597 0.26459,-0.3044 z m -22.891479,-2.48989 c 0.49962,-0.29223 0.9084,-0.54536 0.9084,-0.56252 0,-0.0476 -0.53285,-0.94524 -0.56111,-0.94524 -0.0136,0 -0.18718,0.096 -0.38571,0.21341 l -0.36096,0.21341 0.0951,0.17482 c 0.0523,0.0961 0.0886,0.17992 0.0806,0.18616 -0.10724,0.0837 -0.29078,0.16699 -0.31453,0.14271 -0.0504,-0.0515 -0.95235,-1.60077 -0.95235,-1.6358 0,-0.0179 0.0712,-0.0743 0.15832,-0.12536 0.14379,-0.0843 0.15459,-0.0998 0.1176,-0.16905 -0.0393,-0.0736 -0.31121,-0.52527 -0.32757,-0.54415 -0.0168,-0.0194 -1.64112,0.95188 -1.62881,0.9739 0.17748,0.31729 0.34964,0.60523 0.36187,0.60523 0.009,0 0.0542,-0.0252 0.10119,-0.056 0.047,-0.0308 0.10033,-0.0467 0.11858,-0.0354 0.0468,0.0289 0.9577,1.58718 0.9577,1.63833 0,0.0232 -0.0397,0.0602 -0.0882,0.0823 -0.0485,0.0221 -0.0882,0.053 -0.0882,0.0687 0,0.0157 0.0797,0.16349 0.17714,0.32844 l 0.17714,0.2999 0.27265,-0.16122 c 0.14996,-0.0887 0.68144,-0.40031 1.18106,-0.69254 z m 20.211347,-0.6278 c 0.50278,-0.95849 0.62232,-1.16205 0.67309,-1.14619 0.034,0.0106 0.0919,0.0286 0.12871,0.0401 0.0555,0.0173 0.0945,-0.0322 0.22802,-0.28939 0.0886,-0.17062 0.15765,-0.31244 0.15351,-0.31517 -0.004,-0.003 -0.16231,-0.0868 -0.35149,-0.18686 -0.18917,-0.10004 -0.49421,-0.26206 -0.67786,-0.36003 l -0.33391,-0.17813 -0.16427,0.32707 c -0.14868,0.29604 -0.15855,0.33052 -0.10401,0.36334 0.16744,0.10077 0.16934,0.0859 -0.0675,0.52947 -0.18979,0.35541 -0.22867,0.40872 -0.24446,0.33514 -0.0103,-0.0481 -0.058,-0.5057 -0.10593,-1.01682 -0.0479,-0.51112 -0.0923,-0.93392 -0.0986,-0.93956 -0.028,-0.0251 -1.35672,-0.71967 -1.39665,-0.73006 -0.0256,-0.007 -0.11582,0.12077 -0.21167,0.29909 -0.139778,0.26007 -0.158378,0.31574 -0.114088,0.34154 0.185538,0.1081 0.195648,0.0707 -0.24315,0.89997 -0.22586,0.42686 -0.43138,0.81291 -0.4567,0.85789 -0.0434,0.0771 -0.0509,0.0786 -0.13046,0.0265 -0.0464,-0.0304 -0.0992,-0.0553 -0.11737,-0.0553 -0.0181,0 -0.10645,0.14232 -0.19629,0.31626 l -0.16335,0.31626 0.14828,0.0756 c 0.0816,0.0416 0.38414,0.20091 0.67241,0.35402 0.28827,0.1531 0.53013,0.27837 0.53746,0.27837 0.0196,0 0.337228,-0.59366 0.337228,-0.63039 0,-0.0172 -0.0476,-0.0511 -0.10583,-0.0752 -0.0582,-0.0241 -0.10584,-0.0483 -0.10584,-0.0538 0,-0.0352 0.54251,-1.03823 0.55485,-1.02588 0.008,0.008 0.0628,0.52073 0.1207,1.13842 0.0579,0.61769 0.11617,1.12815 0.12941,1.13435 0.0132,0.006 0.25426,0.13437 0.5356,0.28481 0.28134,0.15044 0.52217,0.26824 0.53517,0.26178 0.013,-0.007 0.29875,-0.53621 0.635,-1.17722 z m -17.397947,-0.60598 c 0.52993,-0.16273 0.91661,-0.44625 1.05852,-0.77612 0.0671,-0.15601 0.0758,-0.22531 0.0606,-0.4838 -0.0155,-0.26386 -0.0514,-0.39413 -0.2862,-1.03864 -0.14766,-0.40531 -0.26846,-0.75698 -0.26846,-0.78148 0,-0.0245 0.0494,-0.0618 0.10978,-0.0828 0.0635,-0.0221 0.10306,-0.0571 0.0938,-0.0828 -0.009,-0.0245 -0.0609,-0.17155 -0.11591,-0.32677 -0.055,-0.15523 -0.10482,-0.2885 -0.11072,-0.29616 -0.0218,-0.0283 -1.45857,0.50628 -1.45601,0.54169 10e-4,0.0202 0.0537,0.17163 0.11597,0.33655 0.10434,0.27612 0.1204,0.29903 0.20291,0.28932 0.0867,-0.0102 0.0991,0.016 0.37793,0.79996 0.15857,0.44578 0.28831,0.84891 0.28831,0.89584 0,0.16919 -0.25307,0.28494 -0.3835,0.17541 -0.0465,-0.0391 -0.18123,-0.36353 -0.36967,-0.89053 -0.27697,-0.7746 -0.29209,-0.83112 -0.23024,-0.86088 0.0364,-0.0175 0.0662,-0.0524 0.0662,-0.0775 0,-0.0423 -0.21024,-0.64909 -0.22489,-0.64909 -0.004,0 -0.33944,0.11954 -0.74631,0.26564 -0.40688,0.14611 -0.75948,0.27256 -0.78356,0.281 -0.0318,0.0111 -0.0111,0.10531 0.0751,0.3429 0.12289,0.3387 0.13064,0.34619 0.31714,0.30639 0.0571,-0.0122 0.10445,0.0923 0.34433,0.75953 0.30216,0.84043 0.38576,1.01138 0.57639,1.17877 0.33265,0.29206 0.72895,0.34547 1.28852,0.17364 z m 13.064959,-0.37437 c 0.0515,-0.17163 0.0936,-0.32839 0.0936,-0.34837 0,-0.02 -0.0476,-0.0458 -0.10583,-0.0575 -0.0582,-0.0116 -0.10553,-0.0414 -0.10516,-0.0661 8.6e-4,-0.0578 0.55058,-1.78979 0.57618,-1.81539 0.0106,-0.0106 0.0683,-0.002 0.12829,0.0187 0.0981,0.0342 0.11204,0.0301 0.13917,-0.0413 0.0779,-0.20494 0.18153,-0.59724 0.16271,-0.61606 -0.0418,-0.0418 -1.62496,-0.52857 -1.6471,-0.50644 -0.0206,0.0206 -0.20659,0.60697 -0.20659,0.65125 0,0.0102 0.0542,0.0365 0.12046,0.0584 l 0.12046,0.0398 -0.0831,0.25402 c -0.0457,0.13971 -0.18023,0.56039 -0.29892,0.93484 -0.2046,0.64549 -0.21981,0.67954 -0.29311,0.65618 -0.16336,-0.0521 -0.17547,-0.0392 -0.27988,0.29808 -0.0562,0.18138 -0.097,0.33461 -0.0909,0.34049 0.0226,0.0215 1.56517,0.50603 1.61973,0.50873 0.0409,0.002 0.0818,-0.0823 0.14993,-0.30927 z m -10.145719,-0.55623 0.64382,-0.061 v -0.0945 c 0,-0.052 -0.0104,-0.21738 -0.0231,-0.36758 l -0.0231,-0.27309 -0.13567,0.0129 c -0.0746,0.007 -0.13566,0.007 -0.13566,-2.5e-4 0,-0.007 -0.0325,-0.33955 -0.0723,-0.73844 -0.0398,-0.39889 -0.0675,-0.75482 -0.0617,-0.79094 0.006,-0.0368 0.26684,0.42671 0.59301,1.05338 l 0.58246,1.11907 0.19283,-0.0102 c 0.10606,-0.006 0.21702,-0.0232 0.24657,-0.039 0.0359,-0.0192 0.15287,-0.42743 0.35243,-1.22991 0.16428,-0.66062 0.30239,-1.19741 0.30692,-1.19289 0.0125,0.0125 0.15286,1.4006 0.15286,1.51132 0,0.0821 -0.0182,0.0999 -0.1218,0.11935 l -0.12181,0.0229 0.0202,0.23451 c 0.0111,0.12898 0.0309,0.29007 0.044,0.35798 0.0214,0.1107 0.0347,0.12257 0.12811,0.11473 0.0573,-0.005 0.42123,-0.0405 0.808691,-0.0794 0.38746,-0.0388 0.73423,-0.0706 0.7706,-0.0706 0.0582,0 0.0637,-0.0201 0.046,-0.16757 -0.0111,-0.0922 -0.0304,-0.25987 -0.0429,-0.37268 l -0.0228,-0.20511 -0.12766,0.0111 -0.12765,0.0111 -0.0937,-0.9525 c -0.0515,-0.52388 -0.0864,-0.96441 -0.0776,-0.97896 0.009,-0.0145 0.065,-0.0265 0.1247,-0.0265 h 0.10859 l -0.0249,-0.34394 c -0.0137,-0.18918 -0.0357,-0.35422 -0.0489,-0.36676 -0.025,-0.0237 -1.970411,0.15826 -1.999141,0.18698 -0.009,0.009 -0.0866,0.33793 -0.17243,0.731 -0.0859,0.39307 -0.16312,0.72169 -0.17169,0.73026 -0.009,0.009 -0.14696,-0.28221 -0.30753,-0.64618 -0.16057,-0.36397 -0.30604,-0.67692 -0.32325,-0.69545 -0.0273,-0.0293 -2.01764,0.13807 -2.07688,0.17468 -0.0106,0.007 -0.005,0.17376 0.0133,0.37155 l 0.0326,0.35961 0.13571,-0.0182 c 0.11002,-0.0148 0.13577,-0.007 0.13602,0.0402 1.6e-4,0.0321 0.0396,0.44731 0.0875,0.92268 0.048,0.47537 0.0875,0.89209 0.0879,0.92604 5e-4,0.0475 -0.0287,0.0617 -0.12696,0.0617 h -0.12762 l 0.0233,0.2734 c 0.0394,0.46231 0.045,0.47695 0.1737,0.45511 0.0611,-0.0104 0.40086,-0.0463 0.75496,-0.0799 z m 7.483249,-0.0332 c 0.2462,-0.0731 0.44093,-0.26784 0.51404,-0.51404 0.13532,-0.45568 -0.0138,-0.78048 -0.45074,-0.98183 l -0.20574,-0.0948 0.19773,-0.0442 c 0.40835,-0.0914 0.65517,-0.39764 0.65414,-0.81166 -10e-4,-0.40244 -0.22829,-0.66829 -0.69628,-0.81445 -0.18672,-0.0583 -2.33393,-0.39943 -2.36122,-0.37511 -0.007,0.006 -0.11692,0.67567 -0.11692,0.70965 0,0.01 0.0357,0.0183 0.0794,0.0186 0.18677,10e-4 0.18651,-0.006 0.0382,1.00949 l -0.13844,0.94736 -0.12859,-0.0111 c -0.12112,-0.0104 -0.12974,-0.004 -0.14834,0.1061 -0.0603,0.35825 -0.0865,0.5736 -0.0716,0.58856 0.009,0.009 0.46531,0.084 1.01336,0.1661 1.08769,0.16284 1.53103,0.18753 1.82103,0.10141 z m -1.17012,-0.74667 c -0.0719,-0.0108 -0.0941,-0.0309 -0.0821,-0.0741 0.009,-0.0326 0.0352,-0.19808 0.0581,-0.36776 l 0.0416,-0.30852 0.14631,0.0216 c 0.0805,0.0119 0.18404,0.0453 0.23016,0.0741 0.0783,0.049 0.0827,0.0686 0.0664,0.2966 -0.0257,0.35972 -0.0944,0.41312 -0.4605,0.35799 z m 0.19399,-1.23495 c -0.0891,-0.011 -0.11221,-0.0282 -0.0989,-0.0737 0.01,-0.0327 0.0361,-0.19173 0.0591,-0.3535 l 0.0417,-0.29412 0.12778,0.0226 c 0.29496,0.0522 0.33642,0.11119 0.28896,0.41144 -0.0305,0.19299 -0.13032,0.31845 -0.24446,0.30731 -0.0318,-0.003 -0.11016,-0.0121 -0.17411,-0.02 z"
         style="fill:#000000"
         id="path1-7" /></g></g></svg>
